<svg
			width="146"
			height="33"
			viewBox="0 0 146 33"
			fill="none"
			xmlns="http://www.w3.org/2000/svg"
		>
			<path
				d="M52.646 25.1274V6.42101H57.4123V25.1274H52.646ZM40.7559 25.1274V6.42101H45.5222V25.1274H40.7559ZM44.7022 17.773V13.6217H53.466V17.773H44.7022ZM69.5549 25.1274V20.9762H68.7861V16.543C68.7861 15.8938 68.6323 15.4155 68.3248 15.108C68.0344 14.7834 67.5475 14.6211 66.8642 14.6211C66.5396 14.6211 66.0613 14.6296 65.4292 14.6467C64.7971 14.6638 64.1308 14.6894 63.4304 14.7236C62.73 14.7578 62.0894 14.7919 61.5085 14.8261V10.9311C61.9185 10.8969 62.4054 10.8627 62.9692 10.8286C63.5329 10.7944 64.1138 10.7688 64.7117 10.7517C65.3267 10.7346 65.8904 10.7261 66.403 10.7261C67.8551 10.7261 69.0851 10.9396 70.093 11.3667C71.118 11.7938 71.8953 12.4344 72.4249 13.2886C72.9716 14.1428 73.2449 15.2276 73.2449 16.543V25.1274H69.5549ZM65.0704 25.4862C64.0796 25.4862 63.1998 25.3068 62.431 24.9481C61.6623 24.5893 61.0558 24.0768 60.6116 23.4106C60.1846 22.7272 59.971 21.9157 59.971 20.9762C59.971 19.917 60.2529 19.0628 60.8166 18.4136C61.3804 17.7474 62.1577 17.2605 63.1485 16.953C64.1394 16.6455 65.2754 16.4917 66.5567 16.4917H69.2986V18.9005H66.5567C65.9246 18.9005 65.4377 19.0628 65.0961 19.3874C64.7544 19.6949 64.5836 20.1134 64.5836 20.643C64.5836 21.1555 64.7544 21.5741 65.0961 21.8987C65.4377 22.2062 65.9246 22.3599 66.5567 22.3599C66.9667 22.3599 67.3255 22.2916 67.633 22.1549C67.9576 22.0012 68.2223 21.7449 68.4273 21.3862C68.6323 21.0274 68.7519 20.532 68.7861 19.8999L69.8624 20.9249C69.7769 21.8987 69.5378 22.7272 69.1449 23.4106C68.769 24.0768 68.2394 24.5893 67.5561 24.9481C66.8898 25.3068 66.0613 25.4862 65.0704 25.4862ZM81.9731 25.5887C79.9231 25.5887 78.3087 25.1702 77.1299 24.3331C75.9512 23.4789 75.3191 22.283 75.2337 20.7455H79.3337C79.402 21.1726 79.6668 21.5399 80.1281 21.8474C80.5893 22.1549 81.2385 22.3087 82.0756 22.3087C82.6735 22.3087 83.186 22.2232 83.6131 22.0524C84.0573 21.8645 84.2794 21.5655 84.2794 21.1555C84.2794 20.7968 84.1085 20.5064 83.7669 20.2843C83.4252 20.0451 82.8016 19.8828 81.8962 19.7974L80.9225 19.6949C79.1116 19.507 77.7791 19.0115 76.9249 18.2086C76.0707 17.4057 75.6437 16.3978 75.6437 15.1848C75.6437 14.1428 75.8999 13.2886 76.4124 12.6223C76.9249 11.939 77.6339 11.4265 78.5393 11.0848C79.4447 10.7431 80.4783 10.5723 81.64 10.5723C83.5362 10.5723 85.0652 10.9908 86.2269 11.8279C87.3886 12.6479 88.0036 13.8353 88.0719 15.3898H83.9719C83.9035 14.9628 83.6729 14.604 83.28 14.3136C82.8871 14.0061 82.3233 13.8523 81.5887 13.8523C81.0591 13.8523 80.6235 13.9463 80.2818 14.1342C79.9572 14.3221 79.7949 14.5869 79.7949 14.9286C79.7949 15.2873 79.9487 15.5521 80.2562 15.723C80.5808 15.8938 81.0933 16.0219 81.7937 16.1074L82.7675 16.2099C84.5783 16.3978 85.9706 16.9017 86.9444 17.7217C87.9352 18.5247 88.4307 19.5838 88.4307 20.8993C88.4307 21.873 88.1659 22.7101 87.6363 23.4106C87.1238 24.111 86.3806 24.6491 85.4069 25.0249C84.4502 25.4008 83.3056 25.5887 81.9731 25.5887ZM90.7503 25.1274V6.42101H95.4141V17.0811H94.7991C94.7991 15.6461 94.9785 14.4417 95.3373 13.468C95.696 12.4942 96.2171 11.7596 96.9004 11.2642C97.6008 10.7688 98.4635 10.5211 99.4885 10.5211H99.6936C101.231 10.5211 102.401 11.0763 103.204 12.1867C104.024 13.2971 104.434 14.9286 104.434 17.0811V25.1274H99.7704V16.9017C99.7704 16.2526 99.574 15.723 99.181 15.313C98.7881 14.8859 98.2671 14.6723 97.6179 14.6723C96.9687 14.6723 96.4391 14.8859 96.0291 15.313C95.6191 15.723 95.4141 16.2696 95.4141 16.953V25.1274H90.7503ZM115.767 25.6399C113.973 25.6399 112.453 25.3068 111.206 24.6406C109.976 23.9743 109.036 23.0347 108.387 21.8218C107.738 20.5918 107.413 19.1397 107.413 17.4655V6.42101H112.179V17.568C112.179 18.3026 112.316 18.9432 112.589 19.4899C112.88 20.0366 113.29 20.4551 113.819 20.7455C114.349 21.0359 114.998 21.1812 115.767 21.1812C116.536 21.1812 117.185 21.0359 117.715 20.7455C118.244 20.4551 118.646 20.0451 118.919 19.5155C119.192 18.9688 119.329 18.3197 119.329 17.568V6.42101H124.095V17.4655C124.095 19.1397 123.771 20.5918 123.121 21.8218C122.489 23.0347 121.55 23.9743 120.303 24.6406C119.073 25.3068 117.561 25.6399 115.767 25.6399ZM127.336 30.2525V10.9823H131.026V17.0811H130.616C130.668 15.6974 130.941 14.5186 131.436 13.5448C131.949 12.5711 132.641 11.8365 133.512 11.3411C134.383 10.8286 135.383 10.5723 136.51 10.5723C137.484 10.5723 138.364 10.7517 139.15 11.1104C139.935 11.4521 140.61 11.9475 141.174 12.5967C141.738 13.2288 142.165 13.9805 142.455 14.8517C142.763 15.723 142.917 16.6797 142.917 17.7217V18.3368C142.917 19.3788 142.78 20.3441 142.507 21.2324C142.233 22.1037 141.823 22.8724 141.277 23.5387C140.73 24.1878 140.055 24.6918 139.252 25.0506C138.466 25.4093 137.561 25.5887 136.536 25.5887C135.442 25.5887 134.477 25.3752 133.64 24.9481C132.803 24.5039 132.137 23.8462 131.641 22.9749C131.163 22.0866 130.907 20.9762 130.873 19.6436L132 21.0274V30.2525H127.336ZM135.126 21.7449C135.741 21.7449 136.28 21.5912 136.741 21.2837C137.219 20.9591 137.586 20.5149 137.843 19.9511C138.116 19.3874 138.253 18.7468 138.253 18.0292C138.253 17.2947 138.116 16.6626 137.843 16.133C137.586 15.5863 137.228 15.1678 136.766 14.8773C136.305 14.5698 135.759 14.4161 135.126 14.4161C134.563 14.4161 134.033 14.5442 133.538 14.8005C133.059 15.0567 132.666 15.4326 132.359 15.928C132.051 16.4234 131.898 17.0213 131.898 17.7217V18.593C131.898 19.2593 132.06 19.8316 132.385 20.3099C132.709 20.7711 133.119 21.1299 133.615 21.3862C134.11 21.6253 134.614 21.7449 135.126 21.7449Z"
				fill="white"
			/>
			<path
				d="M7.71633 24.9142L3.24915 23.7173L11.4747 3.80654C11.6352 3.41815 11.9985 3.15135 12.4171 3.11447L16.4204 2.76187C16.5884 2.74706 16.7125 2.91543 16.6487 3.07159L7.71633 24.9142Z"
				fill="white"
			/>
			<path
				d="M18.1349 26.4643C17.9895 26.8177 17.6748 27.0733 17.2991 27.1432L13.0087 27.9412C12.8334 27.9739 12.6915 27.7996 12.7589 27.6345L21.9181 5.21682L26.3846 6.41362L18.1349 26.4643Z"
				fill="white"
			/>
			<path
				d="M15.97 22.4252L17.167 17.958L23.8937 19.7604L22.0194 24.0461L15.97 22.4252Z"
				fill="white"
			/>
			<path
				d="M5.38035 10.3608L7.19464 6.05974L12.2899 7.42502L11.0931 11.8915L5.38035 10.3608Z"
				fill="white"
			/>
			<path
				d="M12.2347 12.2975L14.0636 8.00036L23.9406 10.5467L21.9563 14.8023L12.2347 12.2975Z"
				fill="white"
			/>
			<path
				d="M23.7499 16.3886L26.0013 11.0989L27.1717 11.4125L26.9432 17.2443L23.7499 16.3886Z"
				fill="#FF3F3F"
			/>
			<path
				d="M8.28374 20.3656L10.4866 16.168L17.4676 18.0385L15.6691 22.3445L8.28374 20.3656Z"
				fill="white"
			/>
			<path
				d="M2.79084 18.8937L3.10547 13.0505L6.00712 13.828L3.78052 19.1589L2.79084 18.8937Z"
				fill="#FF3F3F"
			/>
			<path
				d="M10.4993 11.7595L3.25467 23.7133L8.40213 11.1865L10.4993 11.7595Z"
				fill="url(#paint0_linear_1755_4127)"
			/>
			<path
				d="M19.1593 18.4727L26.3157 6.46392L21.204 19.0382L19.1593 18.4727Z"
				fill="url(#paint1_linear_1755_4127)"
			/>
			<defs>
				<linearGradient
					id="paint0_linear_1755_4127"
					x1="8.80774"
					y1="12.1859"
					x2="5.80174"
					y2="18.3016"
					gradientUnits="userSpaceOnUse"
				>
					<stop stopColor="#D8D8D8" />
					<stop
						offset="1"
						stopColor="white"
						stopOpacity="0"
					/>
				</linearGradient>
				<linearGradient
					id="paint1_linear_1755_4127"
					x1="20.9972"
					y1="18.8468"
					x2="24.3994"
					y2="9.71464"
					gradientUnits="userSpaceOnUse"
				>
					<stop stopColor="#DFDFDF" />
					<stop
						offset="1"
						stopColor="white"
						stopOpacity="0"
					/>
				</linearGradient>
			</defs>
		</svg>